<?xml version="1.0" encoding="UTF-8" standalone="no"?>
<!DOCTYPE svg PUBLIC "-//W3C//DTD SVG 1.1//EN"
 "http://www.w3.org/Graphics/SVG/1.1/DTD/svg11.dtd">
<!-- Generated by graphviz version 2.26.3 (20100126.1600)
 -->
<!-- Title: G Pages: 1 -->
<svg width="1113pt" height="836pt"
 viewBox="0.00 0.00 1113.00 836.00" xmlns="http://www.w3.org/2000/svg" xmlns:xlink="http://www.w3.org/1999/xlink">
<g id="graph1" class="graph" transform="scale(1 1) rotate(0) translate(4 832)">
<title>G</title>
<polygon fill="white" stroke="white" points="-4,5 -4,-832 1110,-832 1110,5 -4,5"/>
<!-- t35 -->
<g id="node1" class="node"><title>t35</title>
<polygon fill="none" stroke="black" points="130,-324 70,-324 70,-288 130,-288 130,-324"/>
<text text-anchor="middle" x="100" y="-302.4" font-family="Times Roman,serif" font-size="14.00">eval_if</text>
</g>
<!-- t16 -->
<g id="node5" class="node"><title>t16</title>
<polygon fill="none" stroke="black" points="287,-36 233,-36 233,-1.77636e-14 287,-3.55271e-15 287,-36"/>
<text text-anchor="middle" x="260" y="-14.4" font-family="Times Roman,serif" font-size="14.00">int_</text>
</g>
<!-- t35&#45;&gt;t16 -->
<g id="edge130" class="edge"><title>t35&#45;&gt;t16</title>
<path fill="none" stroke="black" stroke-dasharray="5,2" d="M97.1566,-287.935C91.5176,-245.435 83.4796,-137.758 134,-72 155.372,-44.1821 193.904,-30.496 222.751,-23.8903"/>
<polygon fill="black" stroke="black" points="223.821,-27.242 232.89,-21.7639 222.385,-20.391 223.821,-27.242"/>
</g>
<!-- t24 -->
<g id="node10" class="node"><title>t24</title>
<polygon fill="none" stroke="black" points="248,-252 194,-252 194,-216 248,-216 248,-252"/>
<text text-anchor="middle" x="221" y="-230.4" font-family="Times Roman,serif" font-size="14.00">bool_</text>
</g>
<!-- t35&#45;&gt;t24 -->
<g id="edge126" class="edge"><title>t35&#45;&gt;t24</title>
<path fill="none" stroke="black" stroke-dasharray="5,2" d="M130.221,-288.017C146.792,-278.157 167.447,-265.866 184.866,-255.501"/>
<polygon fill="black" stroke="black" points="186.837,-258.401 193.641,-250.28 183.258,-252.385 186.837,-258.401"/>
</g>
<!-- t38 -->
<g id="node24" class="node"><title>t38</title>
<polygon fill="none" stroke="black" points="82,-252 28,-252 28,-216 82,-216 82,-252"/>
<text text-anchor="middle" x="55" y="-230.4" font-family="Times Roman,serif" font-size="14.00">if_c</text>
</g>
<!-- t35&#45;&gt;t38 -->
<g id="edge128" class="edge"><title>t35&#45;&gt;t38</title>
<path fill="none" stroke="black" d="M88.6446,-287.831C83.5674,-279.708 77.4773,-269.964 71.8824,-261.012"/>
<polygon fill="black" stroke="black" points="74.7763,-259.038 66.5083,-252.413 68.8403,-262.748 74.7763,-259.038"/>
</g>
<!-- t36 -->
<g id="node32" class="node"><title>t36</title>
<polygon fill="none" stroke="black" points="468,-252 414,-252 414,-216 468,-216 468,-252"/>
<text text-anchor="middle" x="441" y="-230.4" font-family="Times Roman,serif" font-size="14.00">less</text>
</g>
<!-- t35&#45;&gt;t36 -->
<g id="edge114" class="edge"><title>t35&#45;&gt;t36</title>
<path fill="none" stroke="black" d="M130.144,-303.562C184.019,-298.594 300.173,-285.105 404.132,-251.78"/>
<polygon fill="black" stroke="black" points="405.418,-255.042 413.83,-248.601 403.238,-248.39 405.418,-255.042"/>
</g>
<!-- t11 -->
<g id="node2" class="node"><title>t11</title>
<polygon fill="none" stroke="black" points="777,-684 723,-684 723,-648 777,-648 777,-684"/>
<text text-anchor="middle" x="750" y="-662.4" font-family="Times Roman,serif" font-size="14.00">plus</text>
</g>
<!-- t11&#45;&gt;t16 -->
<g id="edge132" class="edge"><title>t11&#45;&gt;t16</title>
<path fill="none" stroke="black" stroke-dasharray="5,2" d="M722.864,-663.734C588.404,-652.149 0,-597.16 0,-522 0,-522 0,-522 0,-162 0,-61.4251 150.723,-30.5249 222.653,-21.5047"/>
<polygon fill="black" stroke="black" points="223.144,-24.9712 232.667,-20.327 222.326,-18.0191 223.144,-24.9712"/>
</g>
<!-- t5 -->
<g id="node26" class="node"><title>t5</title>
<polygon fill="none" stroke="black" points="682,-108 628,-108 628,-72 682,-72 682,-108"/>
<text text-anchor="middle" x="655" y="-86.4" font-family="Times Roman,serif" font-size="14.00">int_</text>
</g>
<!-- t11&#45;&gt;t5 -->
<g id="edge108" class="edge"><title>t11&#45;&gt;t5</title>
<path fill="none" stroke="black" stroke-dasharray="5,2" d="M750,-647.815C750,-620.498 750,-567.25 750,-522 750,-522 750,-522 750,-234 750,-193.118 753.423,-178.184 731,-144 721.149,-128.981 705.558,-116.837 691.054,-107.896"/>
<polygon fill="black" stroke="black" points="692.626,-104.762 682.225,-102.747 689.099,-110.808 692.626,-104.762"/>
</g>
<!-- t12 -->
<g id="node27" class="node"><title>t12</title>
<polygon fill="none" stroke="black" points="846,-612 778,-612 778,-576 846,-576 846,-612"/>
<text text-anchor="middle" x="812" y="-590.4" font-family="Times Roman,serif" font-size="14.00">lazy_fib</text>
</g>
<!-- t11&#45;&gt;t12 -->
<g id="edge28" class="edge"><title>t11&#45;&gt;t12</title>
<path fill="none" stroke="black" d="M765.645,-647.831C772.859,-639.454 781.557,-629.353 789.46,-620.175"/>
<polygon fill="black" stroke="black" points="792.271,-622.275 796.144,-612.413 786.967,-617.707 792.271,-622.275"/>
</g>
<!-- t34 -->
<g id="node29" class="node"><title>t34</title>
<polygon fill="none" stroke="black" points="443,-540 375,-540 375,-504 443,-504 443,-540"/>
<text text-anchor="middle" x="409" y="-518.4" font-family="Times Roman,serif" font-size="14.00">lazy_fib</text>
</g>
<!-- t11&#45;&gt;t34 -->
<g id="edge110" class="edge"><title>t11&#45;&gt;t34</title>
<path fill="none" stroke="black" d="M722.957,-654.58C664.206,-629.77 524.457,-570.756 452.888,-540.533"/>
<polygon fill="black" stroke="black" points="453.831,-537.132 443.257,-536.466 451.107,-543.581 453.831,-537.132"/>
</g>
<!-- t8 -->
<g id="node3" class="node"><title>t8</title>
<polygon fill="none" stroke="black" points="995,-684 941,-684 941,-648 995,-648 995,-684"/>
<text text-anchor="middle" x="968" y="-662.4" font-family="Times Roman,serif" font-size="14.00">bool_</text>
</g>
<!-- t2 -->
<g id="node4" class="node"><title>t2</title>
<polygon fill="none" stroke="black" points="1014,-180 960,-180 960,-144 1014,-144 1014,-180"/>
<text text-anchor="middle" x="987" y="-158.4" font-family="Times Roman,serif" font-size="14.00">less</text>
</g>
<!-- t3 -->
<g id="node7" class="node"><title>t3</title>
<polygon fill="none" stroke="black" points="886,-36 832,-36 832,-1.77636e-14 886,-3.55271e-15 886,-36"/>
<text text-anchor="middle" x="859" y="-14.4" font-family="Times Roman,serif" font-size="14.00">int_</text>
</g>
<!-- t2&#45;&gt;t3 -->
<g id="edge6" class="edge"><title>t2&#45;&gt;t3</title>
<path fill="none" stroke="black" d="M970.527,-143.915C957.383,-124.853 938.726,-94.5251 918,-72 908.158,-61.3034 896.083,-51.0038 885.334,-42.3197"/>
<polygon fill="black" stroke="black" points="887.432,-39.5157 877.432,-36.014 883.066,-44.9871 887.432,-39.5157"/>
</g>
<!-- t2&#45;&gt;t3 -->
<g id="edge8" class="edge"><title>t2&#45;&gt;t3</title>
<path fill="none" stroke="black" stroke-dasharray="5,2" d="M983.881,-143.915C975.383,-124.853 956.726,-94.5251 936,-72 923.997,-58.9546 908.672,-46.4999 894.739,-36.8458"/>
<polygon fill="black" stroke="black" points="896.548,-33.8458 886.285,-31.2164 892.669,-39.6723 896.548,-33.8458"/>
</g>
<!-- t6 -->
<g id="node14" class="node"><title>t6</title>
<polygon fill="none" stroke="black" points="1046,-108 992,-108 992,-72 1046,-72 1046,-108"/>
<text text-anchor="middle" x="1019" y="-86.4" font-family="Times Roman,serif" font-size="14.00">int_</text>
</g>
<!-- t2&#45;&gt;t6 -->
<g id="edge16" class="edge"><title>t2&#45;&gt;t6</title>
<path fill="none" stroke="black" d="M995.075,-143.831C998.61,-135.877 1002.84,-126.369 1006.75,-117.572"/>
<polygon fill="black" stroke="black" points="1009.95,-118.973 1010.82,-108.413 1003.56,-116.13 1009.95,-118.973"/>
</g>
<!-- t4 -->
<g id="node17" class="node"><title>t4</title>
<polygon fill="none" stroke="black" points="918,-108 864,-108 864,-72 918,-72 918,-108"/>
<text text-anchor="middle" x="891" y="-86.4" font-family="Times Roman,serif" font-size="14.00">int_</text>
</g>
<!-- t2&#45;&gt;t4 -->
<g id="edge10" class="edge"><title>t2&#45;&gt;t4</title>
<path fill="none" stroke="black" d="M962.775,-143.831C950.837,-134.878 936.274,-123.956 923.394,-114.295"/>
<polygon fill="black" stroke="black" points="925.317,-111.363 915.217,-108.163 921.117,-116.963 925.317,-111.363"/>
</g>
<!-- t2&#45;&gt;t5 -->
<g id="edge12" class="edge"><title>t2&#45;&gt;t5</title>
<path fill="none" stroke="black" d="M959.694,-152.642C952.311,-149.534 944.43,-146.287 937,-144 851.186,-117.588 746.943,-102.073 692.271,-94.885"/>
<polygon fill="black" stroke="black" points="692.704,-91.4118 682.337,-93.5982 691.804,-98.3538 692.704,-91.4118"/>
</g>
<!-- t2&#45;&gt;t5 -->
<g id="edge14" class="edge"><title>t2&#45;&gt;t5</title>
<path fill="none" stroke="black" stroke-dasharray="5,2" d="M959.948,-145.637C958.291,-145.053 956.635,-144.503 955,-144 862.998,-115.683 749.811,-99.8922 692.188,-93.4588"/>
<polygon fill="black" stroke="black" points="692.412,-89.9626 682.093,-92.3655 691.658,-96.9219 692.412,-89.9626"/>
</g>
<!-- t14 -->
<g id="node6" class="node"><title>t14</title>
<polygon fill="none" stroke="black" points="494,-180 440,-180 440,-144 494,-144 494,-180"/>
<text text-anchor="middle" x="467" y="-158.4" font-family="Times Roman,serif" font-size="14.00">less</text>
</g>
<!-- t14&#45;&gt;t5 -->
<g id="edge44" class="edge"><title>t14&#45;&gt;t5</title>
<path fill="none" stroke="black" stroke-dasharray="5,2" d="M494.248,-149.758C498.819,-147.785 503.529,-145.801 508,-144 545.273,-128.989 588.504,-113.312 618.39,-102.741"/>
<polygon fill="black" stroke="black" points="619.717,-105.985 627.986,-99.3607 617.391,-99.3825 619.717,-105.985"/>
</g>
<!-- t15 -->
<g id="node37" class="node"><title>t15</title>
<polygon fill="none" stroke="black" points="483,-108 425,-108 425,-72 483,-72 483,-108"/>
<text text-anchor="middle" x="454" y="-86.4" font-family="Times Roman,serif" font-size="14.00">minus</text>
</g>
<!-- t14&#45;&gt;t15 -->
<g id="edge34" class="edge"><title>t14&#45;&gt;t15</title>
<path fill="none" stroke="black" d="M463.72,-143.831C462.329,-136.131 460.676,-126.974 459.131,-118.417"/>
<polygon fill="black" stroke="black" points="462.546,-117.632 457.325,-108.413 455.657,-118.876 462.546,-117.632"/>
</g>
<!-- t37 -->
<g id="node8" class="node"><title>t37</title>
<polygon fill="none" stroke="black" points="722,-180 664,-180 664,-144 722,-144 722,-180"/>
<text text-anchor="middle" x="693" y="-158.4" font-family="Times Roman,serif" font-size="14.00">minus</text>
</g>
<!-- t37&#45;&gt;t3 -->
<g id="edge118" class="edge"><title>t37&#45;&gt;t3</title>
<path fill="none" stroke="black" stroke-dasharray="5,2" d="M714.024,-143.762C743.46,-118.227 797.059,-71.7316 830.191,-42.9906"/>
<polygon fill="black" stroke="black" points="832.886,-45.2863 838.147,-36.0896 828.299,-39.9986 832.886,-45.2863"/>
</g>
<!-- t37&#45;&gt;t5 -->
<g id="edge120" class="edge"><title>t37&#45;&gt;t5</title>
<path fill="none" stroke="black" stroke-dasharray="5,2" d="M683.411,-143.831C679.168,-135.792 674.088,-126.167 669.404,-117.292"/>
<polygon fill="black" stroke="black" points="672.481,-115.623 664.718,-108.413 666.29,-118.891 672.481,-115.623"/>
</g>
<!-- t28 -->
<g id="node9" class="node"><title>t28</title>
<polygon fill="none" stroke="black" points="434,-324 374,-324 374,-288 434,-288 434,-324"/>
<text text-anchor="middle" x="404" y="-302.4" font-family="Times Roman,serif" font-size="14.00">eval_if</text>
</g>
<!-- t28&#45;&gt;t16 -->
<g id="edge104" class="edge"><title>t28&#45;&gt;t16</title>
<path fill="none" stroke="black" stroke-dasharray="5,2" d="M374.023,-287.98C360.216,-278.568 344.406,-266.079 333,-252 282.923,-190.185 267.055,-93.8716 262.138,-46.4049"/>
<polygon fill="black" stroke="black" points="265.603,-45.8675 261.178,-36.2412 258.634,-46.5263 265.603,-45.8675"/>
</g>
<!-- t28&#45;&gt;t24 -->
<g id="edge100" class="edge"><title>t28&#45;&gt;t24</title>
<path fill="none" stroke="black" stroke-dasharray="5,2" d="M373.972,-293.303C369.628,-291.503 365.205,-289.691 361,-288 326.082,-273.961 285.989,-258.57 257.683,-247.824"/>
<polygon fill="black" stroke="black" points="258.781,-244.497 248.19,-244.226 256.3,-251.043 258.781,-244.497"/>
</g>
<!-- t33 -->
<g id="node13" class="node"><title>t33</title>
<polygon fill="none" stroke="black" points="684,-252 630,-252 630,-216 684,-216 684,-252"/>
<text text-anchor="middle" x="657" y="-230.4" font-family="Times Roman,serif" font-size="14.00">if_c</text>
</g>
<!-- t28&#45;&gt;t33 -->
<g id="edge102" class="edge"><title>t28&#45;&gt;t33</title>
<path fill="none" stroke="black" d="M434.105,-300.683C474.761,-293.039 549.404,-277.364 620.244,-251.887"/>
<polygon fill="black" stroke="black" points="621.576,-255.126 629.759,-248.396 619.165,-248.555 621.576,-255.126"/>
</g>
<!-- t29 -->
<g id="node33" class="node"><title>t29</title>
<polygon fill="none" stroke="black" points="832,-252 778,-252 778,-216 832,-216 832,-252"/>
<text text-anchor="middle" x="805" y="-230.4" font-family="Times Roman,serif" font-size="14.00">less</text>
</g>
<!-- t28&#45;&gt;t29 -->
<g id="edge86" class="edge"><title>t28&#45;&gt;t29</title>
<path fill="none" stroke="black" d="M434.14,-300.588C506.394,-287.615 689.309,-254.772 768.035,-240.637"/>
<polygon fill="black" stroke="black" points="768.766,-244.062 777.99,-238.85 767.528,-237.172 768.766,-244.062"/>
</g>
<!-- t13 -->
<g id="node11" class="node"><title>t13</title>
<polygon fill="none" stroke="black" points="840,-540 780,-540 780,-504 840,-504 840,-540"/>
<text text-anchor="middle" x="810" y="-518.4" font-family="Times Roman,serif" font-size="14.00">eval_if</text>
</g>
<!-- t13&#45;&gt;t14 -->
<g id="edge32" class="edge"><title>t13&#45;&gt;t14</title>
<path fill="none" stroke="black" d="M786.775,-503.768C757.795,-478.78 712,-430.92 712,-378 712,-378 712,-378 712,-306 712,-265.118 721.522,-245.288 693,-216 679.83,-202.477 565.106,-179.862 504.369,-168.679"/>
<polygon fill="black" stroke="black" points="504.867,-165.212 494.4,-166.857 503.608,-172.098 504.867,-165.212"/>
</g>
<!-- t9 -->
<g id="node15" class="node"><title>t9</title>
<polygon fill="none" stroke="black" points="904,-468 850,-468 850,-432 904,-432 904,-468"/>
<text text-anchor="middle" x="877" y="-446.4" font-family="Times Roman,serif" font-size="14.00">if_c</text>
</g>
<!-- t13&#45;&gt;t9 -->
<g id="edge48" class="edge"><title>t13&#45;&gt;t9</title>
<path fill="none" stroke="black" stroke-dasharray="5,2" d="M826.907,-503.831C834.781,-495.369 844.292,-485.149 852.901,-475.897"/>
<polygon fill="black" stroke="black" points="855.615,-478.118 859.865,-468.413 850.491,-473.35 855.615,-478.118"/>
</g>
<!-- t7 -->
<g id="node19" class="node"><title>t7</title>
<polygon fill="none" stroke="black" points="976,-468 922,-468 922,-432 976,-432 976,-468"/>
<text text-anchor="middle" x="949" y="-446.4" font-family="Times Roman,serif" font-size="14.00">bool_</text>
</g>
<!-- t13&#45;&gt;t7 -->
<g id="edge46" class="edge"><title>t13&#45;&gt;t7</title>
<path fill="none" stroke="black" stroke-dasharray="5,2" d="M840.161,-506.377C861.495,-495.326 890.202,-480.456 912.778,-468.763"/>
<polygon fill="black" stroke="black" points="914.455,-471.836 921.725,-464.128 911.235,-465.62 914.455,-471.836"/>
</g>
<!-- t18 -->
<g id="node21" class="node"><title>t18</title>
<polygon fill="none" stroke="black" points="832,-468 778,-468 778,-432 832,-432 832,-468"/>
<text text-anchor="middle" x="805" y="-446.4" font-family="Times Roman,serif" font-size="14.00">if_c</text>
</g>
<!-- t13&#45;&gt;t18 -->
<g id="edge50" class="edge"><title>t13&#45;&gt;t18</title>
<path fill="none" stroke="black" d="M808.738,-503.831C808.204,-496.131 807.568,-486.974 806.973,-478.417"/>
<polygon fill="black" stroke="black" points="810.463,-478.147 806.279,-468.413 803.48,-478.632 810.463,-478.147"/>
</g>
<!-- t19 -->
<g id="node23" class="node"><title>t19</title>
<polygon fill="none" stroke="black" points="345,-468 291,-468 291,-432 345,-432 345,-468"/>
<text text-anchor="middle" x="318" y="-446.4" font-family="Times Roman,serif" font-size="14.00">plus</text>
</g>
<!-- t13&#45;&gt;t19 -->
<g id="edge52" class="edge"><title>t13&#45;&gt;t19</title>
<path fill="none" stroke="black" d="M779.964,-517.604C694.297,-505.068 448.921,-469.159 355.096,-455.429"/>
<polygon fill="black" stroke="black" points="355.601,-451.965 345.2,-453.98 354.587,-458.892 355.601,-451.965"/>
</g>
<!-- t0 -->
<g id="node12" class="node"><title>t0</title>
<polygon fill="none" stroke="black" points="974,-828 906,-828 906,-792 974,-792 974,-828"/>
<text text-anchor="middle" x="940" y="-806.4" font-family="Times Roman,serif" font-size="14.00">lazy_fib</text>
</g>
<!-- t1 -->
<g id="node34" class="node"><title>t1</title>
<polygon fill="none" stroke="black" points="970,-756 910,-756 910,-720 970,-720 970,-756"/>
<text text-anchor="middle" x="940" y="-734.4" font-family="Times Roman,serif" font-size="14.00">eval_if</text>
</g>
<!-- t0&#45;&gt;t1 -->
<g id="edge2" class="edge"><title>t0&#45;&gt;t1</title>
<path fill="none" stroke="black" d="M940,-791.831C940,-784.131 940,-774.974 940,-766.417"/>
<polygon fill="black" stroke="black" points="943.5,-766.413 940,-756.413 936.5,-766.413 943.5,-766.413"/>
</g>
<!-- t20 -->
<g id="node16" class="node"><title>t20</title>
<polygon fill="none" stroke="black" points="352,-396 284,-396 284,-360 352,-360 352,-396"/>
<text text-anchor="middle" x="318" y="-374.4" font-family="Times Roman,serif" font-size="14.00">lazy_fib</text>
</g>
<!-- t21 -->
<g id="node38" class="node"><title>t21</title>
<polygon fill="none" stroke="black" points="352,-324 292,-324 292,-288 352,-288 352,-324"/>
<text text-anchor="middle" x="322" y="-302.4" font-family="Times Roman,serif" font-size="14.00">eval_if</text>
</g>
<!-- t20&#45;&gt;t21 -->
<g id="edge56" class="edge"><title>t20&#45;&gt;t21</title>
<path fill="none" stroke="black" d="M319.009,-359.831C319.437,-352.131 319.946,-342.974 320.421,-334.417"/>
<polygon fill="black" stroke="black" points="323.917,-334.592 320.977,-324.413 316.928,-334.204 323.917,-334.592"/>
</g>
<!-- t27 -->
<g id="node18" class="node"><title>t27</title>
<polygon fill="none" stroke="black" points="438,-396 370,-396 370,-360 438,-360 438,-396"/>
<text text-anchor="middle" x="404" y="-374.4" font-family="Times Roman,serif" font-size="14.00">lazy_fib</text>
</g>
<!-- t27&#45;&gt;t28 -->
<g id="edge84" class="edge"><title>t27&#45;&gt;t28</title>
<path fill="none" stroke="black" d="M404,-359.831C404,-352.131 404,-342.974 404,-334.417"/>
<polygon fill="black" stroke="black" points="407.5,-334.413 404,-324.413 400.5,-334.413 407.5,-334.413"/>
</g>
<!-- t26 -->
<g id="node20" class="node"><title>t26</title>
<polygon fill="none" stroke="black" points="540,-252 486,-252 486,-216 540,-216 540,-252"/>
<text text-anchor="middle" x="513" y="-230.4" font-family="Times Roman,serif" font-size="14.00">if_c</text>
</g>
<!-- t30 -->
<g id="node22" class="node"><title>t30</title>
<polygon fill="none" stroke="black" points="646,-180 588,-180 588,-144 646,-144 646,-180"/>
<text text-anchor="middle" x="617" y="-158.4" font-family="Times Roman,serif" font-size="14.00">minus</text>
</g>
<!-- t30&#45;&gt;t5 -->
<g id="edge92" class="edge"><title>t30&#45;&gt;t5</title>
<path fill="none" stroke="black" stroke-dasharray="5,2" d="M626.589,-143.831C630.832,-135.792 635.912,-126.167 640.596,-117.292"/>
<polygon fill="black" stroke="black" points="643.71,-118.891 645.282,-108.413 637.519,-115.623 643.71,-118.891"/>
</g>
<!-- t30&#45;&gt;t15 -->
<g id="edge90" class="edge"><title>t30&#45;&gt;t15</title>
<path fill="none" stroke="black" stroke-dasharray="5,2" d="M587.859,-149.128C561.285,-137.39 521.833,-119.963 492.638,-107.067"/>
<polygon fill="black" stroke="black" points="493.725,-103.721 483.163,-102.882 490.896,-110.124 493.725,-103.721"/>
</g>
<!-- t19&#45;&gt;t16 -->
<g id="edge80" class="edge"><title>t19&#45;&gt;t16</title>
<path fill="none" stroke="black" stroke-dasharray="5,2" d="M294.494,-431.871C259.787,-399.301 197.576,-327.232 176,-252 154.169,-175.88 203.43,-87.1194 235.594,-44.071"/>
<polygon fill="black" stroke="black" points="238.42,-46.1383 241.773,-36.0881 232.885,-41.8537 238.42,-46.1383"/>
</g>
<!-- t19&#45;&gt;t16 -->
<g id="edge106" class="edge"><title>t19&#45;&gt;t16</title>
<path fill="none" stroke="black" stroke-dasharray="5,2" d="M305.25,-431.871C277.787,-399.301 215.576,-327.232 194,-252 172.305,-176.356 220.817,-88.2284 246.255,-44.8835"/>
<polygon fill="black" stroke="black" points="249.377,-46.4792 251.445,-36.0881 243.349,-42.9217 249.377,-46.4792"/>
</g>
<!-- t19&#45;&gt;t20 -->
<g id="edge54" class="edge"><title>t19&#45;&gt;t20</title>
<path fill="none" stroke="black" d="M318,-431.831C318,-424.131 318,-414.974 318,-406.417"/>
<polygon fill="black" stroke="black" points="321.5,-406.413 318,-396.413 314.5,-406.413 321.5,-406.413"/>
</g>
<!-- t19&#45;&gt;t27 -->
<g id="edge82" class="edge"><title>t19&#45;&gt;t27</title>
<path fill="none" stroke="black" d="M339.701,-431.831C350.192,-423.048 362.946,-412.371 374.319,-402.849"/>
<polygon fill="black" stroke="black" points="376.885,-405.266 382.306,-396.163 372.391,-399.899 376.885,-405.266"/>
</g>
<!-- t17 -->
<g id="node25" class="node"><title>t17</title>
<polygon fill="none" stroke="black" points="481,-36 427,-36 427,-1.77636e-14 481,-3.55271e-15 481,-36"/>
<text text-anchor="middle" x="454" y="-14.4" font-family="Times Roman,serif" font-size="14.00">int_</text>
</g>
<!-- t12&#45;&gt;t13 -->
<g id="edge30" class="edge"><title>t12&#45;&gt;t13</title>
<path fill="none" stroke="black" d="M811.495,-575.831C811.281,-568.131 811.027,-558.974 810.789,-550.417"/>
<polygon fill="black" stroke="black" points="814.288,-550.312 810.511,-540.413 807.291,-550.507 814.288,-550.312"/>
</g>
<!-- t10 -->
<g id="node28" class="node"><title>t10</title>
<polygon fill="none" stroke="black" points="1105,-684 1051,-684 1051,-648 1105,-648 1105,-684"/>
<text text-anchor="middle" x="1078" y="-662.4" font-family="Times Roman,serif" font-size="14.00">if_c</text>
</g>
<!-- t34&#45;&gt;t35 -->
<g id="edge112" class="edge"><title>t34&#45;&gt;t35</title>
<path fill="none" stroke="black" d="M374.779,-513.996C319.459,-499.439 209.941,-463.689 144,-396 126.948,-378.495 115.359,-353.094 108.374,-333.737"/>
<polygon fill="black" stroke="black" points="111.675,-332.575 105.136,-324.24 105.05,-334.834 111.675,-332.575"/>
</g>
<!-- t31 -->
<g id="node30" class="node"><title>t31</title>
<polygon fill="none" stroke="black" points="832,-180 778,-180 778,-144 832,-144 832,-180"/>
<text text-anchor="middle" x="805" y="-158.4" font-family="Times Roman,serif" font-size="14.00">int_</text>
</g>
<!-- t32 -->
<g id="node31" class="node"><title>t32</title>
<polygon fill="none" stroke="black" points="904,-180 850,-180 850,-144 904,-144 904,-180"/>
<text text-anchor="middle" x="877" y="-158.4" font-family="Times Roman,serif" font-size="14.00">int_</text>
</g>
<!-- t36&#45;&gt;t16 -->
<g id="edge122" class="edge"><title>t36&#45;&gt;t16</title>
<path fill="none" stroke="black" stroke-dasharray="5,2" d="M413.655,-218.828C392.058,-206.487 364.096,-189.597 355,-180 317.227,-140.146 323.282,-119.066 295,-72 289.619,-63.0449 283.499,-53.4265 277.897,-44.8244"/>
<polygon fill="black" stroke="black" points="280.714,-42.7377 272.301,-36.2984 274.863,-46.5789 280.714,-42.7377"/>
</g>
<!-- t36&#45;&gt;t37 -->
<g id="edge116" class="edge"><title>t36&#45;&gt;t37</title>
<path fill="none" stroke="black" d="M468.194,-219.472C471.122,-218.19 474.093,-217.001 477,-216 550.335,-190.75 576.37,-204.298 654.091,-179.852"/>
<polygon fill="black" stroke="black" points="655.409,-183.104 663.832,-176.678 653.24,-176.449 655.409,-183.104"/>
</g>
<!-- t36&#45;&gt;t5 -->
<g id="edge124" class="edge"><title>t36&#45;&gt;t5</title>
<path fill="none" stroke="black" stroke-dasharray="5,2" d="M468.402,-220.117C487.817,-209.878 514.184,-195.149 536,-180 556.473,-165.784 559.27,-159.23 579,-144 592.138,-133.858 606.944,-123.178 619.975,-114.017"/>
<polygon fill="black" stroke="black" points="622.054,-116.834 628.246,-108.237 618.044,-111.096 622.054,-116.834"/>
</g>
<!-- t29&#45;&gt;t30 -->
<g id="edge88" class="edge"><title>t29&#45;&gt;t30</title>
<path fill="none" stroke="black" d="M777.874,-225.118C749.43,-215.613 703.315,-199.665 655.578,-180.071"/>
<polygon fill="black" stroke="black" points="656.91,-176.835 646.332,-176.238 654.229,-183.301 656.91,-176.835"/>
</g>
<!-- t29&#45;&gt;t5 -->
<g id="edge98" class="edge"><title>t29&#45;&gt;t5</title>
<path fill="none" stroke="black" stroke-dasharray="5,2" d="M832.219,-228.829C858.059,-222.317 895.477,-208.353 913,-180 921.412,-166.39 923.088,-156.419 913,-144 885.599,-110.27 756.848,-96.8661 692.212,-92.194"/>
<polygon fill="black" stroke="black" points="692.259,-88.689 682.042,-91.4929 691.778,-95.6724 692.259,-88.689"/>
</g>
<!-- t29&#45;&gt;t31 -->
<g id="edge94" class="edge"><title>t29&#45;&gt;t31</title>
<path fill="none" stroke="black" d="M805,-215.831C805,-208.131 805,-198.974 805,-190.417"/>
<polygon fill="black" stroke="black" points="808.5,-190.413 805,-180.413 801.5,-190.413 808.5,-190.413"/>
</g>
<!-- t29&#45;&gt;t32 -->
<g id="edge96" class="edge"><title>t29&#45;&gt;t32</title>
<path fill="none" stroke="black" d="M823.169,-215.831C831.715,-207.285 842.056,-196.944 851.38,-187.62"/>
<polygon fill="black" stroke="black" points="853.991,-189.959 858.587,-180.413 849.041,-185.009 853.991,-189.959"/>
</g>
<!-- t1&#45;&gt;t11 -->
<g id="edge26" class="edge"><title>t1&#45;&gt;t11</title>
<path fill="none" stroke="black" d="M909.894,-726.591C876.513,-713.942 822.657,-693.533 786.799,-679.945"/>
<polygon fill="black" stroke="black" points="787.786,-676.576 777.195,-676.305 785.306,-683.122 787.786,-676.576"/>
</g>
<!-- t1&#45;&gt;t8 -->
<g id="edge20" class="edge"><title>t1&#45;&gt;t8</title>
<path fill="none" stroke="black" d="M947.066,-719.831C950.126,-711.962 953.778,-702.571 957.168,-693.853"/>
<polygon fill="black" stroke="black" points="960.477,-695.002 960.839,-684.413 953.953,-692.465 960.477,-695.002"/>
</g>
<!-- t1&#45;&gt;t2 -->
<g id="edge4" class="edge"><title>t1&#45;&gt;t2</title>
<path fill="none" stroke="black" d="M969.049,-719.959C981.632,-710.702 995.419,-698.348 1004,-684 1024.98,-648.914 1023,-634.882 1023,-594 1023,-594 1023,-594 1023,-306 1023,-264.507 1008.76,-218.243 998.19,-189.624"/>
<polygon fill="black" stroke="black" points="1001.46,-188.377 994.635,-180.274 994.918,-190.865 1001.46,-188.377"/>
</g>
<!-- t1&#45;&gt;t9 -->
<g id="edge22" class="edge"><title>t1&#45;&gt;t9</title>
<path fill="none" stroke="black" d="M934.989,-719.559C932.218,-709.149 928.783,-695.882 926,-684 908.688,-610.078 891.099,-522.327 882.467,-478.249"/>
<polygon fill="black" stroke="black" points="885.871,-477.414 880.52,-468.269 879,-478.755 885.871,-477.414"/>
</g>
<!-- t1&#45;&gt;t7 -->
<g id="edge18" class="edge"><title>t1&#45;&gt;t7</title>
<path fill="none" stroke="black" d="M936.585,-719.58C934.829,-709.177 932.877,-695.909 932,-684 926.526,-609.695 937.554,-522.108 944.296,-478.156"/>
<polygon fill="black" stroke="black" points="947.765,-478.629 945.865,-468.206 940.85,-477.538 947.765,-478.629"/>
</g>
<!-- t1&#45;&gt;t10 -->
<g id="edge24" class="edge"><title>t1&#45;&gt;t10</title>
<path fill="none" stroke="black" d="M970.285,-722.199C991.251,-711.261 1019.27,-696.643 1041.47,-685.058"/>
<polygon fill="black" stroke="black" points="1043.35,-688.027 1050.6,-680.298 1040.11,-681.821 1043.35,-688.027"/>
</g>
<!-- t25 -->
<g id="node35" class="node"><title>t25</title>
<polygon fill="none" stroke="black" points="612,-252 558,-252 558,-216 612,-216 612,-252"/>
<text text-anchor="middle" x="585" y="-230.4" font-family="Times Roman,serif" font-size="14.00">bool_</text>
</g>
<!-- t22 -->
<g id="node36" class="node"><title>t22</title>
<polygon fill="none" stroke="black" points="396,-252 342,-252 342,-216 396,-216 396,-252"/>
<text text-anchor="middle" x="369" y="-230.4" font-family="Times Roman,serif" font-size="14.00">less</text>
</g>
<!-- t22&#45;&gt;t16 -->
<g id="edge68" class="edge"><title>t22&#45;&gt;t16</title>
<path fill="none" stroke="black" stroke-dasharray="5,2" d="M350.266,-215.787C340.847,-205.872 329.807,-192.999 322,-180 295.767,-136.322 277.128,-79.6182 267.503,-46.1839"/>
<polygon fill="black" stroke="black" points="270.771,-44.8734 264.697,-36.1923 264.032,-46.7662 270.771,-44.8734"/>
</g>
<!-- t22&#45;&gt;t5 -->
<g id="edge70" class="edge"><title>t22&#45;&gt;t5</title>
<path fill="none" stroke="black" stroke-dasharray="5,2" d="M396.368,-219.921C399.262,-218.552 402.178,-217.219 405,-216 447.595,-197.596 464.455,-205.833 503,-180 521.03,-167.916 518.429,-156.742 536,-144 561.182,-125.739 593.525,-111.548 618.135,-102.307"/>
<polygon fill="black" stroke="black" points="619.633,-105.486 627.828,-98.7708 617.234,-98.9098 619.633,-105.486"/>
</g>
<!-- t23 -->
<g id="node39" class="node"><title>t23</title>
<polygon fill="none" stroke="black" points="422,-180 364,-180 364,-144 422,-144 422,-180"/>
<text text-anchor="middle" x="393" y="-158.4" font-family="Times Roman,serif" font-size="14.00">minus</text>
</g>
<!-- t22&#45;&gt;t23 -->
<g id="edge60" class="edge"><title>t22&#45;&gt;t23</title>
<path fill="none" stroke="black" d="M375.056,-215.831C377.651,-208.046 380.742,-198.773 383.622,-190.135"/>
<polygon fill="black" stroke="black" points="387.02,-191.007 386.862,-180.413 380.38,-188.793 387.02,-191.007"/>
</g>
<!-- t15&#45;&gt;t16 -->
<g id="edge38" class="edge"><title>t15&#45;&gt;t16</title>
<path fill="none" stroke="black" d="M424.757,-80.8812C390.468,-69.0361 333.907,-48.1706 296.723,-33.742"/>
<polygon fill="black" stroke="black" points="297.837,-30.4194 287.249,-30.0391 295.289,-36.9392 297.837,-30.4194"/>
</g>
<!-- t15&#45;&gt;t16 -->
<g id="edge40" class="edge"><title>t15&#45;&gt;t16</title>
<path fill="none" stroke="black" stroke-dasharray="5,2" d="M424.633,-77.1278C390.288,-63.6494 333.699,-42.6702 296.555,-29.6627"/>
<polygon fill="black" stroke="black" points="297.687,-26.351 287.092,-26.3776 295.391,-32.9638 297.687,-26.351"/>
</g>
<!-- t15&#45;&gt;t3 -->
<g id="edge36" class="edge"><title>t15&#45;&gt;t3</title>
<path fill="none" stroke="black" stroke-dasharray="5,2" d="M483.127,-84.8219C555.162,-72.0156 741.617,-38.8681 821.63,-24.6436"/>
<polygon fill="black" stroke="black" points="822.511,-28.042 831.744,-22.8456 821.285,-21.15 822.511,-28.042"/>
</g>
<!-- t15&#45;&gt;t17 -->
<g id="edge42" class="edge"><title>t15&#45;&gt;t17</title>
<path fill="none" stroke="black" d="M454,-71.8314C454,-64.131 454,-54.9743 454,-46.4166"/>
<polygon fill="black" stroke="black" points="457.5,-46.4132 454,-36.4133 450.5,-46.4133 457.5,-46.4132"/>
</g>
<!-- t21&#45;&gt;t16 -->
<g id="edge78" class="edge"><title>t21&#45;&gt;t16</title>
<path fill="none" stroke="black" stroke-dasharray="5,2" d="M306.626,-287.878C288.037,-264.658 257.778,-222.331 246,-180 233.3,-134.354 243.27,-78.9286 251.643,-46.1663"/>
<polygon fill="black" stroke="black" points="255.062,-46.9323 254.275,-36.3667 248.301,-45.1166 255.062,-46.9323"/>
</g>
<!-- t21&#45;&gt;t24 -->
<g id="edge72" class="edge"><title>t21&#45;&gt;t24</title>
<path fill="none" stroke="black" d="M296.513,-287.831C283.834,-278.793 268.34,-267.748 254.694,-258.02"/>
<polygon fill="black" stroke="black" points="256.653,-255.118 246.478,-252.163 252.59,-260.818 256.653,-255.118"/>
</g>
<!-- t21&#45;&gt;t26 -->
<g id="edge76" class="edge"><title>t21&#45;&gt;t26</title>
<path fill="none" stroke="black" d="M352.41,-292.892C356.617,-291.19 360.9,-289.514 365,-288 411.271,-270.915 426.83,-271.602 476.376,-251.964"/>
<polygon fill="black" stroke="black" points="477.725,-255.194 485.682,-248.198 475.099,-248.705 477.725,-255.194"/>
</g>
<!-- t21&#45;&gt;t25 -->
<g id="edge74" class="edge"><title>t21&#45;&gt;t25</title>
<path fill="none" stroke="black" d="M352.257,-292.437C356.488,-290.805 360.818,-289.27 365,-288 441.774,-264.686 468.166,-277.812 548.302,-251.741"/>
<polygon fill="black" stroke="black" points="549.447,-255.048 557.812,-248.547 547.218,-248.412 549.447,-255.048"/>
</g>
<!-- t21&#45;&gt;t22 -->
<g id="edge58" class="edge"><title>t21&#45;&gt;t22</title>
<path fill="none" stroke="black" d="M333.86,-287.831C339.163,-279.708 345.524,-269.964 351.367,-261.012"/>
<polygon fill="black" stroke="black" points="354.445,-262.7 356.98,-252.413 348.583,-258.874 354.445,-262.7"/>
</g>
<!-- t23&#45;&gt;t16 -->
<g id="edge66" class="edge"><title>t23&#45;&gt;t16</title>
<path fill="none" stroke="black" stroke-dasharray="5,2" d="M387.85,-143.981C381.531,-124.415 369.225,-93.1377 350,-72 335.175,-55.6995 314.274,-42.7499 296.346,-33.6225"/>
<polygon fill="black" stroke="black" points="297.811,-30.443 287.289,-29.2003 294.74,-36.7332 297.811,-30.443"/>
</g>
<!-- t23&#45;&gt;t5 -->
<g id="edge64" class="edge"><title>t23&#45;&gt;t5</title>
<path fill="none" stroke="black" stroke-dasharray="5,2" d="M422.207,-147.435C425.144,-146.191 428.109,-145.021 431,-144 495.214,-121.324 573.082,-104.927 618.046,-96.4856"/>
<polygon fill="black" stroke="black" points="618.736,-99.9176 627.933,-94.6587 617.464,-93.0342 618.736,-99.9176"/>
</g>
<!-- t23&#45;&gt;t15 -->
<g id="edge62" class="edge"><title>t23&#45;&gt;t15</title>
<path fill="none" stroke="black" stroke-dasharray="5,2" d="M408.393,-143.831C415.49,-135.454 424.048,-125.353 431.824,-116.175"/>
<polygon fill="black" stroke="black" points="434.606,-118.306 438.4,-108.413 429.265,-113.781 434.606,-118.306"/>
</g>
</g>
</svg>
